:SAMPLES-PER-SECOND 30
:FULLY-SPECIFIED
:DEGREES
390
root  4.35553 38.8038 47.1119 -72.6876 11.4302 -121.274
RightUpLeg  12.3423 -9.47655 -21.1073
RightLeg  46.6231 -16.2208 -18.1502
RightFoot  0.777549 -0.796798 7.56437
RightToes  -5.82094e-011 -1.98785e-016 -5.10186e-018
Spine  -7.33675 5.21843 -9.16817
Spine1  -10.8167 0.0131321 25.9063
HEad  -29.1608 -47.9444 54.6814
LeftShoulder1  0.277705 13.4678 12.9332
LeftArm  -29.3153 24.5308 -11.863
LeftForeArm  57.7779 -48.4256 -8.50143
LeftHand  2.23123 14.1387 28.8604
RightShoulder  2.72389 5.6495 23.6179
RightArm  4.52815 -29.9378 0.715336
RightForeArm  49.1814 -6.44157 12.901
RightHand  0.300582 6.79941 2.50784
LeftUpLeg  -77.1953 41.9544 20.8148
LeftLeg  6.84118 24.1854 3.65975
LeftFoot  -6.22741 -0.283753 7.17471
LeftToes  -8.4584e-011 5.90861e-011 8.40072e-012
391
root  3.81768 38.7629 46.8891 -70.5703 12.4563 -118.333
RightUpLeg  12.2896 -12.355 -18.9006
RightLeg  58.142 -13.6317 -22.7648
RightFoot  1.81739 -0.838782 7.36514
RightToes  -5.82094e-011 -1.98785e-016 -5.10186e-018
Spine  -9.02845 6.60522 -3.61883
Spine1  -7.14535 1.2377 17.6213
HEad  -33.1087 -46.9274 54.1446
LeftShoulder1  -0.275836 14.7848 6.65589
LeftArm  -26.6203 32.7732 -18.2741
LeftForeArm  60.3196 -52.325 -9.88731
LeftHand  2.19904 13.4862 30.6258
RightShoulder  2.71386 5.73691 23.1949
RightArm  2.12468 -25.715 2.42607
RightForeArm  47.9787 -6.49151 12.7094
RightHand  0.207777 7.95032 1.43095
LeftUpLeg  -78.4341 44.2112 18.4383
LeftLeg  7.89215 23.7935 3.39623
LeftFoot  -6.86819 -0.26276 7.79699
LeftToes  -8.4584e-011 5.90861e-011 8.40072e-012
392
root  3.15442 39.2648 46.1759 -78.5301 21.8596 -113.815
RightUpLeg  21.9547 -15.0638 -28.4554
RightLeg  67.0534 -10.4121 -25.4799
RightFoot  2.28203 -1.04626 8.86711
RightToes  -5.82094e-011 -1.98785e-016 -5.10186e-018
Spine  10.5666 9.33977 -13.7084
Spine1  -15.8237 4.28899 19.0089
HEad  -36.7214 -46.723 54.7629
LeftShoulder1  -1.00314 12.853 -2.4335
LeftArm  -28.5552 37.8519 -27.0071
LeftForeArm  63.3992 -58.4055 -12.843
LeftHand  2.86335 14.4207 35.1109
RightShoulder  2.45583 5.0379 22.5394
RightArm  1.13924 -21.0286 2.65614
RightForeArm  46.7942 -6.55317 12.7081
RightHand  0.121668 8.59096 0.615116
LeftUpLeg  -69.2553 44.384 11.8006
LeftLeg  11.2554 19.3991 3.20139
LeftFoot  -9.67167 -0.0621732 8.19236
LeftToes  -8.4584e-011 5.90861e-011 8.40072e-012
393
root  2.22235 39.0916 45.586 -78.1075 27.3687 -107.972
RightUpLeg  20.6499 -19.6316 -32.0171
RightLeg  74.9915 -5.28278 -22.7548
RightFoot  2.97217 -1.28125 10.3415
RightToes  -5.82094e-011 -1.98785e-016 -5.10186e-018
Spine  16.1098 10.4481 -13.2891
Spine1  -18.1259 5.43423 12.9687
HEad  -36.5264 -47.0148 55.0021
LeftShoulder1  -1.31744 10.9058 -10.3911
LeftArm  -28.3849 40.489 -36.8112
LeftForeArm  67.1663 -65.9652 -18.0676
LeftHand  3.79563 16.0238 39.2722
RightShoulder  2.37145 5.09756 21.287
RightArm  -1.06219 -16.5243 2.19157
RightForeArm  43.2086 -6.27228 12.4865
RightHand  0.0244015 8.40258 -0.220639
LeftUpLeg  -75.7571 50.0359 -3.08719
LeftLeg  17.1246 11.3303 4.32813
LeftFoot  -12.8074 0.190145 8.63962
LeftToes  -8.4584e-011 5.90861e-011 8.40072e-012
394
root  1.21909 38.5824 44.8311 -76.1057 32.0494 -102.098
RightUpLeg  17.3105 -26.2288 -32.7131
RightLeg  81.6519 -2.39191 -23.0654
RightFoot  3.89686 -1.40075 10.6757
RightToes  -5.82094e-011 -1.98785e-016 -5.10186e-018
Spine  17.6372 9.50745 -10.8689
Spine1  -17.0539 5.32587 6.63977
HEad  -34.8156 -45.9606 53.9483
LeftShoulder1  -0.783555 6.97153 -16.3785
LeftArm  -29.7362 39.5475 -49.3955
LeftForeArm  74.6468 -70.0742 -22.1619
LeftHand  3.80499 15.4919 41.1254
RightShoulder  2.56731 6.03362 20.5825
RightArm  -2.12588 -11.6063 1.23724
RightForeArm  39.8571 -4.2986 12.4951
RightHand  -0.557997 8.12727 -4.99976
LeftUpLeg  -77.0277 52.276 -8.79646
LeftLeg  22.9608 11.6557 5.7161
LeftFoot  -16.3242 0.514946 9.56079
LeftToes  -8.4584e-011 5.90861e-011 8.40072e-012
